{"accessors":[{"name":"Layer 1_1_positions","componentType":5126,"count":11956,"min":[-7.34375,-1693.8062744140625,835.8426513671875],"max":[7.343994140625,-1665.12451171875,836.3726806640625],"type":"VEC3","bufferView":0,"byteOffset":0},{"name":"Layer 1_1_normals","componentType":5126,"count":11956,"min":[-1,-1,-1],"max":[1,1,1],"type":"VEC3","bufferView":0,"byteOffset":143472},{"name":"Layer 1_1_texcoords","componentType":5126,"count":11956,"min":[0,0],"max":[1,1],"type":"VEC2","bufferView":1,"byteOffset":0},{"name":"Layer 1_1_0_indices","componentType":5123,"count":17823,"min":[0],"max":[3957],"type":"SCALAR","bufferView":2,"byteOffset":0},{"name":"Layer 1_1_1_indices","componentType":5123,"count":3,"min":[3584],"max":[3584],"type":"SCALAR","bufferView":2,"byteOffset":35648},{"name":"Layer 1_1_2_indices","componentType":5123,"count":11886,"min":[3958],"max":[7997],"type":"SCALAR","bufferView":2,"byteOffset":35656},{"name":"Layer 1_1_3_indices","componentType":5123,"count":3,"min":[3584],"max":[3584],"type":"SCALAR","bufferView":2,"byteOffset":59428},{"name":"Layer 1_1_4_indices","componentType":5123,"count":17823,"min":[7998],"max":[11955],"type":"SCALAR","bufferView":2,"byteOffset":59436}],"asset":{"generator":"obj2gltf","version":"2.0"},"buffers":[{"name":"fish-2","byteLength":498172,"uri":"data:application/octet-stream;base64,"}],"bufferViews":[{"name":"bufferView_0","buffer":0,"byteLength":286944,"byteOffset":0,"byteStride":12,"target":34962},{"name":"bufferView_1","buffer":0,"byteLength":95648,"byteOffset":286944,"byteStride":8,"target":34962},{"name":"bufferView_2","buffer":0,"byteLength":95084,"byteOffset":382592,"target":34963},{"buffer":0,"byteOffset":477676,"byteLength":20494}],"images":[{"name":"Layer 1 Extrusion Material - Default Texture","mimeType":"image/png","bufferView":3}],"materials":[{"name":"Layer 1 Front Inflation Material","pbrMetallicRoughness":{"baseColorFactor":[0.5,0.5,0.5,1],"metallicFactor":0,"roughnessFactor":0.993937133},"emissiveFactor":[0,0,0],"alphaMode":"OPAQUE","doubleSided":false},{"name":"Layer 1 Front Bevel Material","pbrMetallicRoughness":{"baseColorFactor":[0.5,0.5,0.5,1],"metallicFactor":0,"roughnessFactor":0.993937133},"emissiveFactor":[0,0,0],"alphaMode":"OPAQUE","doubleSided":false},{"name":"Layer 1 Extrusion Material","pbrMetallicRoughness":{"baseColorTexture":{"index":0},"baseColorFactor":[1,1,1,1],"metallicFactor":0,"roughnessFactor":0.993937133},"emissiveFactor":[0,0,0],"alphaMode":"OPAQUE","doubleSided":false},{"name":"Layer 1 Back Bevel Material","pbrMetallicRoughness":{"baseColorFactor":[0.5,0.5,0.5,1],"metallicFactor":0,"roughnessFactor":0.993937133},"emissiveFactor":[0,0,0],"alphaMode":"OPAQUE","doubleSided":false},{"name":"Layer 1 Back Inflation Material","pbrMetallicRoughness":{"baseColorFactor":[0.5,0.5,0.5,1],"metallicFactor":0,"roughnessFactor":0.993937133},"emissiveFactor":[0,0,0],"alphaMode":"OPAQUE","doubleSided":false}],"meshes":[{"name":"Layer 1_1","primitives":[{"attributes":{"POSITION":0,"NORMAL":1,"TEXCOORD_0":2},"indices":3,"material":0,"mode":4},{"attributes":{"POSITION":0,"NORMAL":1,"TEXCOORD_0":2},"indices":4,"material":1,"mode":4},{"attributes":{"POSITION":0,"NORMAL":1,"TEXCOORD_0":2},"indices":5,"material":2,"mode":4},{"attributes":{"POSITION":0,"NORMAL":1,"TEXCOORD_0":2},"indices":6,"material":3,"mode":4},{"attributes":{"POSITION":0,"NORMAL":1,"TEXCOORD_0":2},"indices":7,"material":4,"mode":4}]}],"nodes":[{"name":"Layer 1","mesh":0}],"samplers":[{"magFilter":9729,"minFilter":9986,"wrapS":10497,"wrapT":10497}],"scene":0,"scenes":[{"nodes":[0]}],"textures":[{"name":"Layer 1 Extrusion Material - Default Texture","sampler":0,"source":0}]}
